<?xml version="1.0" encoding="UTF-8" standalone="no"?>
<svg id="svg2" xmlns:rdf="http://www.w3.org/1999/02/22-rdf-syntax-ns#" xmlns="http://www.w3.org/2000/svg" viewBox="0 0 24 24" version="1.1" xmlns:cc="http://creativecommons.org/ns#" xmlns:dc="http://purl.org/dc/elements/1.1/">
 <g id="layer1" transform="matrix(.073502 0 0 .073502 -16.31 -16.209)">
  <g id="g3876" fill="#ffffff">
   <path id="path3825" d="m385.66 284.12c-14.226 0-25.75 5.0987-25.75 11.375 0 1.1896 0.419 2.3286 1.1875 3.4062l-0.0625 0.0312c14.543 11.875 42.949 8.5111 49.625-1.125v0.46875c0.50837-0.8858 0.78125-1.8264 0.78125-2.7812l-0.0312-0.125c-0.14393-6.2308-11.626-11.25-25.75-11.25zm24.969 15.219-0.34375 11.875c-9.2262 11.012-37.921 13.086-50.719-0.1875l0.34375-11.406-15.281 8.9375c-1.3748-0.10011-2.78-0.1875-4.2188-0.1875-14.226 0-25.75 5.0987-25.75 11.375 0 1.5028 0.69691 2.9382 1.9062 4.25 14.726 11.252 42.393 7.8673 48.969-1.625l-0.34375 13.375c-9.2262 11.012-37.921 13.086-50.719-0.1875l0.25-9.4375-19.75 11.562 91.469 52.531 91.406-52.844-21.031-11.906-0.28125 9.75c-9.2262 11.012-37.921 13.086-50.719-0.1875l0.36-13.02c14.064 12.882 43.44 9.7449 50.562 0.0312 0.0114-0.0212 0.0201-0.0413 0.0312-0.0625 0.41734-0.79411 0.65625-1.6133 0.65625-2.4688l-0.0312-0.125c-0.14393-6.2308-11.626-11.25-25.75-11.25-1.7459 0-3.4453 0.10394-5.0938 0.25l-15.95-9.04zm1.1562 49.031-0.34375 13.406c-9.2262 11.012-37.921 13.086-50.719-0.1875l0.34375-13.031c14.167 12.976 43.874 9.6934 50.719-0.1875z"/>
   <path id="path3805" d="m292.13 354.31 85.166 50.548v76.772l-85.671-48.023z"/>
   <path id="path3805-4" d="m479.83 352.5-85.671 53.074v76.772l85.671-48.023z"/>
  </g>
 </g>
</svg>
