<?xml version="1.0" encoding="utf-8"?>
<!-- Generator: Adobe Illustrator 17.0.2, SVG Export Plug-In . SVG Version: 6.00 Build 0)  -->
<!DOCTYPE svg PUBLIC "-//W3C//DTD SVG 1.1//EN" "http://www.w3.org/Graphics/SVG/1.1/DTD/svg11.dtd">
<svg version="1.1" id="Capa_1" xmlns="http://www.w3.org/2000/svg" xmlns:xlink="http://www.w3.org/1999/xlink" x="0px" y="0px"
	 width="32px" height="32px" viewBox="0 0 64 64" enable-background="new 0 0 64 64" xml:space="preserve" fill="#FFFFFF">
<g>
	<path d="M48.828,28.181l4.067-0.383l-1.396-3.4l-2.913,3.465c-0.059-0.079-0.094-0.127-0.094-0.127s-0.036,0.048-0.095,0.127
		l-2.913-3.465l-0.595,1.448c-1.768-0.932-3.836-1.877-5.768-2.4c0,0-2.07,1.098-2.642,2.525c0,0-1.142,0.33-1.23,1.164
		c-0.088,0.835,1.538,1.538,1.538,1.538s7.536-0.835,9.645,0c0.447,0.177,0.826,0.26,1.162,0.298
		c-2.461,3.438-9.22,13.3-9.22,17.873c0,5.587,4.529,10.116,10.117,10.116c5.587,0,10.116-4.529,10.116-10.116
		c0-4.908-7.786-15.909-9.686-18.521C48.899,28.273,48.869,28.226,48.828,28.181z M36.614,27.424l-0.003-0.644
		c1.11-0.005,4.641,0.012,7.738,0.386l-0.259,0.63C41.736,27.527,38.929,27.408,36.614,27.424z M47.908,28.534
		c-0.852-0.308-2.166-0.546-3.676-0.723l3.932,0.37C48.094,28.277,47.998,28.41,47.908,28.534z"/>
	<path d="M14.282,33.211c-0.07,1.364,1.524,2.762,3.722,3.199c2.327,0.465,4.445-0.324,4.732-1.76c0,0,0.585-4.092-2.667-7.046
		c-3.251-2.955-5.36-3.789-5.053-0.538l0.074,0.414v0.003c-0.363-0.033-0.713,0.061-0.972,0.305
		c-0.543,0.511-0.479,1.463,0.143,2.126c0.051,0.055,0.108,0.101,0.164,0.147c-0.11,0.051-0.217,0.112-0.308,0.198
		c-0.543,0.511-0.479,1.463,0.143,2.126c0.037,0.039,0.077,0.069,0.116,0.106l-0.032,0.229
		C14.295,32.874,14.274,33.041,14.282,33.211z"/>
	<path d="M33.131,39.018c0.386-4.201,0.361-6.764,0.253-8.241c1.084-0.249,2.083-0.713,2.963-1.335
		c-0.61-0.276-2.175-1.126-2.031-2.488c0.108-1.026,0.947-1.575,1.486-1.823c0.827-1.489,2.67-2.5,2.895-2.619l0.337-0.179
		l0.368,0.1c0.172,0.047,0.345,0.1,0.517,0.151c0-0.008,0.002-0.017,0.002-0.025c0-4.659-3.777-8.436-8.436-8.436
		c-0.839,0-1.649,0.124-2.414,0.352c0.001-0.001-4.453,0.29-6.454,2.734c-0.093,0.112-0.048,0.18,0.095,0.148
		c0.469-0.102,1.493-0.299,2.342-0.256c-0.4,0.472-0.749,0.987-1.04,1.538c-0.582,0.443-1.139,0.994-1.453,1.634
		c-0.065,0.131-0.001,0.186,0.137,0.137c0.153-0.054,0.378-0.115,0.669-0.143c-0.205,0.729-0.317,1.497-0.317,2.291
		c0,4.065,2.877,7.46,6.705,8.258c0.104,1.607,0.13,4.306-0.773,5.254c0,0-1.623-2.445-5.347-3.527
		c0.184,1.292,0.062,2.223,0.05,2.306c-0.327,1.65-2.078,2.724-4.365,2.724c-0.498,0-1.006-0.052-1.512-0.152
		c-2.574-0.513-4.407-2.137-4.493-3.925c-1.121,0.584-2.034,1.312-2.712,2.162c0.144-0.925-0.258-1.759-0.915-1.876
		c-0.558-0.098-1.119,0.35-1.39,1.047c-0.451-0.786-1.255-1.178-1.834-0.879c-0.564,0.29-0.71,1.134-0.369,1.938
		c-0.825-0.01-1.511,0.408-1.59,1.011c-0.074,0.562,0.397,1.104,1.106,1.343c-0.765,0.485-1.122,1.306-0.798,1.872
		c0.298,0.518,1.065,0.649,1.811,0.351c-0.128,0.633,0.048,1.22,0.493,1.461c0.597,0.323,1.452-0.097,1.909-0.94
		c0.033-0.06,0.057-0.123,0.085-0.185c0.365,4.034,3.869,7.85,10.906,7.662C27.463,48.263,32.406,46.908,33.131,39.018z M33.5,19.5
		c0.553,0,1,0.447,1,1c0,0.553-0.447,1-1,1c-0.553,0-1-0.447-1-1C32.5,19.947,32.947,19.5,33.5,19.5z"/>
</g>
</svg>
