<?xml version="1.0" encoding="UTF-8" standalone="no"?>
<svg xmlns:rdf="http://www.w3.org/1999/02/22-rdf-syntax-ns#"
    xmlns="http://www.w3.org/2000/svg"
    xmlns:osb="http://www.openswatchbook.org/uri/2009/osb"
    version="1.1" xmlns:cc="http://creativecommons.org/ns#"
    xmlns:xlink="http://www.w3.org/1999/xlink"
    viewBox="0 0 64 64"
    width="128"
    height="128"
    xmlns:dc="http://purl.org/dc/elements/1.1/">
 <defs>
  <linearGradient id="c" y2="27.531" gradientUnits="userSpaceOnUse" x2="60.062" gradientTransform="matrix(.46302 0 0 .46302 -2.3587 8.7775)" y1="27.531" x1="32.562">
   <stop stop-color="#f2f2f2" offset="0"/>
   <stop stop-color="#858585" offset="1"/>
  </linearGradient>
 </defs>
 <g stroke-linejoin="round" stroke="#000" stroke-width=".2">
  <path d="m32.377 61.965-25.72-14.745v-20.005l25.731 14.856z" fill="#ccc"/>
  <path d="m32.381 61.965 25.72-14.745v-20.005l-25.731 14.856z" fill="#808080"/>
  <path d="m32.376 42.08-25.729-14.858 25.728-14.858 25.729 14.858z" fill="#e6e6e6"/>
 </g>
 <g stroke-linejoin="round" stroke="#000" stroke-width=".1" display="none" fill="none">
  <path d="m60 31.562a13.688 7.8125 0 1 1 -27.375 0 13.688 7.8125 0 1 1 27.375 0z" transform="matrix(.5 0 0 .5 9.4062 16.094)"/>
  <path d="m60 31.562a13.688 7.8125 0 1 1 -27.375 0 13.688 7.8125 0 1 1 27.375 0z" transform="matrix(.5 0 0 .5 23.24 7.9742)"/>
  <path d="m60 31.562a13.688 7.8125 0 1 1 -27.375 0 13.688 7.8125 0 1 1 27.375 0z" transform="matrix(.5 0 0 .5 -4.0713 7.9744)"/>
  <path d="m60 31.562a13.688 7.8125 0 1 1 -27.375 0 13.688 7.8125 0 1 1 27.375 0z" transform="matrix(.5 0 0 .5 9.5803 .16899)"/>
 </g>
 <g id="d" transform="matrix(.94150 0 0 .94150 1.5539 4.7902)">
  <path stroke-linejoin="round" d="m19.085 27.009c3.5002 0 6.3376-1.6195 6.3376-3.6174v-5.5408c0 1.9978-2.8374 3.6173-6.3376 3.6173s-6.3376-1.6195-6.3376-3.6173v5.5408c0 1.9978 2.8374 3.6174 6.3376 3.6174z" stroke="#000" stroke-width=".21243" fill="url(#c)"/>
  <path stroke-linejoin="round" d="m12.747 17.851c0-2.0138 2.8374-3.6463 6.3376-3.6463s6.3376 1.6325 6.3376 3.6463-2.8374 3.6463-6.3376 3.6463-6.3376-1.6325-6.3376-3.6463" stroke="#000" stroke-width=".21243" fill="#ccc"/>
 </g>
 <use id="b" xlink:href="#d" transform="translate(25.714 -.083217)" height="64" width="64" y="0" x="0" stroke-width=".2"/>
 <use id="a" xlink:href="#b" transform="translate(-12.982 7.8224)" height="64" width="64" y="0" x="0" stroke-width=".2"/>
 <use xlink:href="#a" transform="translate(.083218 -15.146)" height="64" width="64" y="0" x="0" stroke-width=".2"/>
 <path d="m0.35355 23.341 32.173-19.092 13.323 7.867l-0.0221-9.9879 7.7671-0.088388-0.01105 14.672 9.8788 5.922" stroke="#4e4e4e" stroke-width="3" fill="none"/>
</svg>
